<svg xmlns="http://www.w3.org/2000/svg" enable-background="new 0 0 47.5 47.5" viewBox="0 0 47.5 47.5" id="id-button"><defs><clipPath id="a"><path d="M0 38h38V0H0v38Z"></path></clipPath></defs><g clip-path="url(#a)" transform="matrix(1.25 0 0 -1.25 0 47.5)"><path fill="#9266cc" d="M0 0a4 4 0 0 0-4-4h-28a4 4 0 0 0-4 4v28a4 4 0 0 0 4 4h28a4 4 0 0 0 4-4V0Z" transform="translate(37 5)"></path><path fill="#fff" d="M0 0c0 1.55.992 2.418 2.325 2.418C3.658 2.418 4.65 1.55 4.65 0v-17.611c0-1.551-.992-2.418-2.325-2.418-1.333 0-2.325.867-2.325 2.418V0Z" transform="translate(6.717 27.844)"></path><path fill="#fff" d="M0 0h3.132c4 0 5.828 2.945 5.828 6.666 0 3.969-1.859 6.852-6.138 6.852H0V0Zm-4.65 15.409c0 1.427.992 2.388 2.387 2.388h5.147c6.946 0 10.914-4.465 10.914-11.348 0-6.511-4.216-10.728-10.604-10.728h-5.395c-1.024 0-2.449.558-2.449 2.325v17.363z" transform="translate(18.807 12.28)"></path></g></svg>